<svg width="1145" height="630" viewBox="0 0 1145 630" fill="none" xmlns="http://www.w3.org/2000/svg">
<mask id="mask0" mask-type="alpha" maskUnits="userSpaceOnUse" x="0" y="0" width="1145" height="630">
<path d="M0 0H1145V630H0V0Z" fill="#2469C7"/>
</mask>
<g mask="url(#mask0)">
<g opacity="0.08">
<path d="M588.12 -493.05C617.824 -471.069 635.139 -434.408 671.842 -427.634C721.1 -418.55 766.682 -471.02 817.52 -482.655C872.444 -495.235 926.805 -478.327 979.076 -432.418C1026.29 -390.971 1042.75 -333.367 1025.43 -270.223C995.893 -162.508 876.153 -68.1622 938.798 38.9642C965.503 84.6286 1018.61 113.906 1025.6 175.482C1032.62 237.197 994.869 321.496 933.829 380.488C847.195 464.187 774.135 441.249 772.471 441.429C768.24 440.505 668.375 417.376 617.919 300.548C548.208 139.151 409.781 326.537 246.355 346.342C230.03 348.323 211.306 349.105 196.232 339.935C166.5 321.86 167.72 277.777 177.798 245.524C193.122 196.503 226.662 155.286 236.504 106.649C248.438 47.6214 199.461 25.0108 162.664 -9.64784C104.233 -64.6928 110.667 -133.231 187.51 -175.433C213.391 -189.654 241.533 -198.746 265.456 -214.737C368.15 -283.363 333.97 -468.566 472.377 -511.052C512.141 -523.266 556.526 -516.457 588.12 -493.05Z" stroke="black" stroke-width="2" stroke-miterlimit="10"/>
<path d="M526.342 -452.107C606.804 -449.755 612.198 -384.446 660.553 -375.503C702.828 -367.69 742.163 -412.529 785.98 -422.379C833.41 -433.061 880.327 -418.363 925.428 -378.703C966.186 -342.875 980.49 -293.097 965.727 -238.567C940.652 -145.879 838.231 -64.3185 891.663 27.7594C914.53 67.311 959.953 92.6587 965.827 145.956C976.741 246.057 856.266 399.252 746.66 376.141L746.681 376.065C729.672 374.03 651.926 345.627 612.572 255.434C552.186 117.423 433.702 277.551 292.516 293.964C278.418 295.605 262.23 296.195 249.17 288.212C223.433 272.488 224.359 234.308 232.968 206.4C245.884 164.526 274.737 128.219 283.048 86.6667C293.189 36.0598 251.309 16.4484 219.835 -13.538C169.87 -61.1038 175.027 -120.673 241.634 -157.532C263.749 -169.795 288.119 -177.831 308.712 -191.674C396.974 -250.958 368.504 -410.344 488.098 -446.99C500.55 -450.81 513.552 -452.483 526.342 -452.107Z" stroke="black" stroke-width="2" stroke-miterlimit="10"/>
<path d="M588.614 -370.136C610.275 -354.379 622.956 -328.243 649.244 -323.373C684.453 -316.845 717.65 -354.052 754.422 -362.117C794.357 -370.901 833.834 -358.425 871.752 -325.015C906.052 -294.793 918.228 -252.867 906.006 -206.951C885.341 -129.025 800.21 -60.6308 844.525 16.5154C863.517 49.8517 901.325 71.4492 906.045 116.417C914.749 201.218 813.231 329.727 720.794 310.837L720.797 310.812C711.574 309.894 691.149 300.921 677.603 292.544C656.251 279.346 626.7 254.363 607.193 210.306C556.188 95.8337 457.397 228.571 338.634 241.584C326.738 242.883 313.097 243.294 302.064 236.488C280.347 223.101 280.963 190.848 288.093 167.286C298.836 131.779 322.649 101.756 329.558 66.6949C337.909 24.4836 303.093 7.85773 276.973 -17.4301C235.006 -57.9617 239.91 -108.418 295.714 -139.632C314.244 -150.047 334.728 -156.98 351.924 -168.614C426.163 -218.847 402.716 -352.018 503.777 -382.942C533.323 -391.956 565.742 -386.702 588.614 -370.136Z" stroke="black" stroke-width="2" stroke-miterlimit="10"/>
<path d="M588.863 -308.672C606.475 -296.053 616.895 -275.146 637.952 -271.229C666.36 -265.98 692.944 -295.516 722.88 -301.841C754.863 -308.626 787.781 -298.069 818.092 -271.3C845.945 -246.697 855.957 -212.61 846.298 -175.295C830.025 -112.069 762.398 -57.0248 797.409 5.34918C812.606 32.4091 842.77 50.2936 846.287 86.9426C852.906 155.979 770.491 260.327 694.968 245.561L694.989 245.486C688.254 244.996 672.933 239.332 659.403 231.133C642.043 220.627 617.969 200.651 601.863 165.243C560.437 74.1518 480.894 179.688 384.778 189.243C375.097 190.202 364.004 190.408 354.986 184.79C337.276 173.754 337.596 147.416 343.233 128.199C351.593 99.726 370.666 74.8658 376.074 46.7371C382.638 12.8833 355.944 0.327022 334.106 -21.3213C300.671 -54.3211 304.213 -95.6971 349.785 -121.707C356.084 -125.302 362.629 -128.407 368.957 -131.405C405.696 -148.833 419.343 -157.882 444.028 -225.098C458.409 -264.278 473.294 -304.788 519.484 -318.88C543.176 -326.074 569.766 -322.248 588.863 -308.672Z" stroke="black" stroke-width="2" stroke-miterlimit="10"/>
<path d="M589.094 -247.222C602.743 -237.751 610.781 -222.064 626.655 -219.099C648.126 -215.119 668.394 -237.039 691.356 -241.577C715.945 -246.5 741.208 -238.197 764.424 -217.599C785.809 -198.627 793.68 -172.379 786.588 -143.691C774.752 -95.3532 724.459 -53.3343 750.29 -5.86846C761.648 14.9772 784.175 29.0856 786.511 57.4293C790.993 111.587 727.186 190.718 669.159 180.273C663.382 180.077 651.222 175.61 641.158 169.733C627.779 161.906 609.179 146.962 596.516 120.154C564.541 52.5156 504.791 130.739 430.895 136.875C423.442 137.481 414.884 137.508 407.905 133.066C394.225 124.394 394.237 103.971 398.392 89.1119C404.523 67.182 418.666 48.1769 422.621 26.7792C427.4 1.27042 407.355 -8.68042 391.259 -25.2256C364.929 -52.1308 370.279 -84.0542 403.886 -103.768C439.111 -124.424 450.972 -117.365 475.932 -182.683C487.441 -212.789 499.333 -243.911 535.22 -254.806C553.889 -260.46 574.036 -257.673 589.094 -247.222Z" stroke="black" stroke-width="2" stroke-miterlimit="10"/>
<path d="M589.309 -185.784C598.921 -179.451 604.673 -168.981 615.363 -166.967C629.811 -164.221 643.9 -178.572 659.864 -181.325C677.043 -184.346 694.642 -178.324 710.775 -163.896C725.659 -150.583 731.38 -132.199 726.899 -112.11C719.422 -78.6127 686.488 -49.6185 703.196 -17.0337C710.711 -2.36437 725.59 7.95483 726.763 27.9558C728.972 65.886 684.868 121.318 643.37 114.986C629.116 114.846 604.058 100.384 591.205 75.1174C568.733 30.9085 528.213 81.8787 476.98 84.5206C471.755 84.773 465.759 84.5967 460.806 81.3432C451.203 75.0354 450.749 61.0557 453.526 50.0758C455.32 43.0122 458.263 36.3502 461.108 29.9137C473.667 1.48747 472.77 -5.40161 455.15 -22.3342C444.98 -32.1091 434.82 -43.5327 437.879 -59.8954C440.942 -76.2834 455.227 -84.6924 468.129 -91.4802C486.829 -101.294 493.696 -105.938 507.808 -140.293C516.445 -161.325 525.382 -183.071 550.939 -190.743C564.167 -194.705 578.517 -192.888 589.309 -185.784Z" stroke="black" stroke-width="2" stroke-miterlimit="10"/>
<path d="M589.445 -124.398C594.919 -121.269 598.529 -115.911 604.095 -114.834C611.755 -113.378 619.549 -120.1 628.491 -121.068C638.266 -122.138 648.172 -118.371 657.144 -110.166C665.504 -102.524 669.091 -92.0418 667.233 -80.6413C664.195 -61.9434 648.417 -45.9035 656.148 -28.0939C659.834 -19.6257 667.039 -12.9695 667.007 -1.37587C666.937 21.2278 641.962 51.3445 618.226 49.7584C612.406 50.7797 596.012 46.5045 585.981 30.2003C580.946 22.0096 574.25 19.6307 564.246 22.4698C553.23 25.609 524.792 37.5597 513.68 29.5834C509.027 26.2498 507.163 19.3702 508.664 11.1687C509.421 7.01742 510.825 3.11353 512.178 -0.652369C517.693 -16.0046 517.29 -19.2132 508.886 -28.9873C503.271 -35.5079 498.63 -42.2916 500.497 -51.7762C502.446 -61.6644 510.23 -66.941 517.678 -71.5044C527.532 -77.5447 530.922 -80.0201 539.615 -97.8921C545.439 -109.848 551.456 -122.217 566.684 -126.679C574.246 -128.879 582.793 -128.197 589.445 -124.398Z" stroke="black" stroke-width="2" stroke-miterlimit="10"/>
</g>
</g>
</svg>
